<svg width="68" height="68" viewBox="0 0 68 68" fill="none" xmlns="http://www.w3.org/2000/svg">
<circle cx="34" cy="34" r="33.5" fill="white" stroke="#9E9E9E"/>
<g clip-path="url(#clip0_55_83)">
<path d="M45.0753 40.6815C44.6703 41.6087 44.1909 42.4622 43.6355 43.2468C42.8784 44.3165 42.2585 45.057 41.7807 45.4681C41.0402 46.143 40.2467 46.4887 39.397 46.5083C38.7871 46.5083 38.0514 46.3363 37.1952 45.9874C36.3361 45.6401 35.5466 45.4681 34.8247 45.4681C34.0676 45.4681 33.2556 45.6401 32.3871 45.9874C31.5172 46.3363 30.8165 46.5182 30.2807 46.5362C29.4659 46.5706 28.6538 46.2151 27.8431 45.4681C27.3257 45.0209 26.6785 44.2543 25.9032 43.1682C25.0714 42.0084 24.3876 40.6635 23.8518 39.1302C23.278 37.4741 22.9904 35.8703 22.9904 34.3177C22.9904 32.5392 23.3782 31.0053 24.155 29.7198C24.7654 28.6873 25.5776 27.8728 26.5941 27.2749C27.6105 26.677 28.7088 26.3723 29.8916 26.3528C30.5388 26.3528 31.3874 26.5512 32.4421 26.9411C33.4938 27.3323 34.1691 27.5306 34.4651 27.5306C34.6865 27.5306 35.4366 27.2987 36.7083 26.8362C37.9109 26.4074 38.9259 26.2298 39.7574 26.2997C42.0105 26.4799 43.7033 27.3601 44.829 28.9458C42.8139 30.1557 41.8171 31.8504 41.837 34.0243C41.8551 35.7177 42.475 37.1268 43.6933 38.2456C44.2455 38.7649 44.8621 39.1663 45.5481 39.4513C45.3993 39.8788 45.2423 40.2884 45.0753 40.6815ZM39.9078 20.5309C39.9078 21.8581 39.4185 23.0974 38.4432 24.2444C37.2662 25.608 35.8426 26.3959 34.2988 26.2716C34.2792 26.1123 34.2677 25.9448 34.2677 25.7687C34.2677 24.4945 34.8275 23.131 35.8215 22.016C36.3177 21.4515 36.9488 20.9822 37.7142 20.6077C38.4779 20.2389 39.2003 20.0349 39.8797 20C39.8996 20.1774 39.9078 20.3549 39.9078 20.5309V20.5309Z" fill="black"/>
</g>
<defs>
<clipPath id="clip0_55_83">
<rect width="26.5385" height="26.5385" fill="white" transform="translate(21 20)"/>
</clipPath>
</defs>
</svg>
