<svg width="68" height="68" viewBox="0 0 68 68" fill="none" xmlns="http://www.w3.org/2000/svg">
<circle cx="34" cy="34" r="33.5" fill="white" stroke="#9E9E9E"/>
<g clip-path="url(#clip0_55_82)">
<path fill-rule="evenodd" clip-rule="evenodd" d="M47.0077 34.5708C47.0077 33.6299 46.9233 32.7252 46.7664 31.8567H34.2692V36.9894H41.4105C41.1029 38.6481 40.168 40.0534 38.7627 40.9943V44.3237H43.0511C45.5601 42.0137 47.0077 38.6119 47.0077 34.5708Z" fill="#4285F4"/>
<path fill-rule="evenodd" clip-rule="evenodd" d="M34.2692 47.5385C37.8519 47.5385 40.8556 46.3503 43.051 44.3237L38.7627 40.9943C37.5745 41.7905 36.0545 42.2609 34.2692 42.2609C30.8132 42.2609 27.8879 39.9267 26.8445 36.7904H22.4114V40.2283C24.5948 44.5649 29.0822 47.5385 34.2692 47.5385Z" fill="#34A853"/>
<path fill-rule="evenodd" clip-rule="evenodd" d="M26.8445 36.7904C26.5791 35.9942 26.4283 35.1438 26.4283 34.2692C26.4283 33.3947 26.5791 32.5442 26.8445 31.7481V28.3102H22.4114C21.5127 30.1015 21 32.1281 21 34.2692C21 36.4104 21.5127 38.437 22.4114 40.2283L26.8445 36.7904Z" fill="#FBBC05"/>
<path fill-rule="evenodd" clip-rule="evenodd" d="M34.2692 26.2775C36.2174 26.2775 37.9665 26.947 39.3417 28.2619L43.1476 24.456C40.8496 22.3149 37.8459 21 34.2692 21C29.0822 21 24.5948 23.9735 22.4114 28.3101L26.8445 31.7481C27.8879 28.6117 30.8132 26.2775 34.2692 26.2775Z" fill="#EA4335"/>
</g>
<defs>
<clipPath id="clip0_55_82">
<rect width="26.5385" height="26.5385" fill="white" transform="translate(21 21)"/>
</clipPath>
</defs>
</svg>
