<svg width="46" height="45" viewBox="0 0 46 45" fill="none" xmlns="http://www.w3.org/2000/svg">
<path d="M23.2337 44.6713C35.5631 44.6713 45.558 34.6763 45.558 22.347C45.558 10.0176 35.5631 0.0226593 23.2337 0.0226593C10.9043 0.0226593 0.909378 10.0176 0.909378 22.347C0.909378 34.6763 10.9043 44.6713 23.2337 44.6713Z" fill="#FFDD67"/>
<path d="M18.3968 19.6681C19.4386 21.8261 18.0991 24.5794 15.4946 25.8444C12.8901 27.0351 9.91353 26.2909 8.87173 24.1329C8.27641 22.719 17.8014 18.2542 18.3968 19.6681ZM28.0706 19.6681C27.0288 21.8261 28.3683 24.5794 30.9728 25.8444C33.5773 27.0351 36.5539 26.2909 37.5957 24.1329C38.191 22.719 28.6659 18.2542 28.0706 19.6681Z" fill="#664E27"/>
<path d="M16.3132 13.2684C14.304 15.7241 9.46704 17.9565 6.26722 17.9565C5.82073 17.9565 5.74632 19.5936 6.26722 19.5936C9.91352 19.5936 15.1969 17.138 17.5782 14.3102C17.9503 13.9382 16.6108 12.9708 16.3132 13.2684ZM30.1542 13.2684C32.1634 15.7241 37.0003 17.9565 40.2002 17.9565C40.6467 17.9565 40.7211 19.5936 40.2002 19.5936C36.5539 19.5936 31.2704 17.138 28.8892 14.3102C28.5171 13.9382 29.8566 12.9708 30.1542 13.2684Z" fill="#917524"/>
<path d="M29.6333 33.0626C25.6149 31.2023 20.8524 31.2023 16.8341 33.0626C15.8667 33.5091 17.0573 36.188 18.0991 35.6671C20.778 34.4021 24.722 33.9556 28.4427 35.6671C29.4101 36.1136 30.6751 33.5835 29.6333 33.0626Z" fill="#664E27"/>
</svg>
