<svg width="45" height="45" viewBox="0 0 45 45" fill="none" xmlns="http://www.w3.org/2000/svg">
<path d="M22.347 44.6713C34.6763 44.6713 44.6713 34.6763 44.6713 22.347C44.6713 10.0176 34.6763 0.0226593 22.347 0.0226593C10.0176 0.0226593 0.0226593 10.0176 0.0226593 22.347C0.0226593 34.6763 10.0176 44.6713 22.347 44.6713Z" fill="#FFDD67"/>
<path d="M19.7425 19.296C18.3286 15.5008 16.245 13.5661 14.1614 13.5661C12.0778 13.5661 9.99417 15.5008 8.5803 19.296C8.43147 19.668 9.17562 20.3378 9.54769 19.9657C10.8871 18.5518 12.5243 17.9565 14.1614 17.9565C15.7985 17.9565 17.4356 18.5518 18.7751 19.9657C19.2216 20.4122 19.8913 19.668 19.7425 19.296ZM36.0392 19.296C34.6253 15.5008 32.5417 13.5661 30.4581 13.5661C28.3745 13.5661 26.2909 15.5008 24.877 19.296C24.7282 19.668 25.4724 20.3378 25.8444 19.9657C27.1839 18.5518 28.821 17.9565 30.4581 17.9565C32.0952 17.9565 33.7324 18.5518 35.0718 19.9657C35.4439 20.4122 36.188 19.668 36.0392 19.296ZM38.7181 26.3653C38.7181 25.77 38.2716 25.0259 36.9322 24.8026C33.6579 24.3561 28.6722 23.8352 22.347 23.8352C16.0217 23.8352 11.036 24.3561 7.76174 24.8026C6.4967 25.0259 5.9758 25.77 5.9758 26.3653C5.9758 33.5091 8.5803 35.7415 19.2216 35.7415H25.4724C36.1136 35.7415 38.7181 33.5091 38.7181 26.3653Z" fill="#664E27"/>
<path d="M34.923 26.9607C35.0718 26.5886 34.8486 26.2165 34.5509 26.1421C34.5509 26.1421 29.0442 25.3235 22.347 25.3235C15.6497 25.3235 10.143 26.1421 10.143 26.1421C9.77093 26.2165 9.6221 26.5886 9.77093 26.9607L10.5895 29.1187C10.7383 29.4907 11.1848 29.7884 11.5569 29.7884H33.2114C33.5835 29.7884 34.03 29.4907 34.1788 29.1187L34.923 26.9607ZM22.347 34.2533C27.1095 34.2533 33.8812 34.2533 33.6579 32.6906C33.6579 32.3929 33.5835 32.0953 33.4347 31.7232C33.2859 31.3511 33.2114 31.2023 32.3929 31.2023H12.2266C11.408 31.2023 11.3336 31.2767 11.1848 31.7232C11.1104 32.0953 11.036 32.3929 10.9616 32.6906C10.8127 34.2533 17.5844 34.2533 22.347 34.2533Z" fill="white"/>
</svg>
