<svg width="46" height="45" viewBox="0 0 46 45" fill="none" xmlns="http://www.w3.org/2000/svg">
<path d="M23.1949 44.6713C35.5242 44.6713 45.5192 34.6763 45.5192 22.347C45.5192 10.0176 35.5242 0.0226593 23.1949 0.0226593C10.8655 0.0226593 0.870552 10.0176 0.870552 22.347C0.870552 34.6763 10.8655 44.6713 23.1949 44.6713Z" fill="#FFDD67"/>
<path d="M14.6372 22.0493C16.6921 22.0493 18.3579 20.3835 18.3579 18.3286C18.3579 16.2737 16.6921 14.6079 14.6372 14.6079C12.5823 14.6079 10.9165 16.2737 10.9165 18.3286C10.9165 20.3835 12.5823 22.0493 14.6372 22.0493Z" fill="#664E27"/>
<path d="M31.7525 22.0493C33.8074 22.0493 35.4732 20.3835 35.4732 18.3286C35.4732 16.2737 33.8074 14.6079 31.7525 14.6079C29.6976 14.6079 28.0318 16.2737 28.0318 18.3286C28.0318 20.3835 29.6976 22.0493 31.7525 22.0493Z" fill="#664E27"/>
<path d="M16.4976 33.9556C20.8136 30.3837 25.5761 30.3837 29.8921 33.9556C30.413 34.4021 30.8595 33.658 30.4875 32.9882C29.148 30.4581 26.5435 28.1513 23.1948 28.1513C19.8462 28.1513 17.1673 30.4581 15.9022 32.9882C15.5302 33.658 15.9767 34.4021 16.4976 33.9556Z" fill="#664E27"/>
</svg>
