<svg width="46" height="45" viewBox="0 0 46 45" fill="none" xmlns="http://www.w3.org/2000/svg">
<path d="M22.7903 44.6713C35.1197 44.6713 45.1146 34.6763 45.1146 22.347C45.1146 10.0176 35.1197 0.0226593 22.7903 0.0226593C10.461 0.0226593 0.46602 10.0176 0.46602 22.347C0.46602 34.6763 10.461 44.6713 22.7903 44.6713Z" fill="#FFDD67"/>
<path d="M14.2327 22.7935C16.2876 22.7935 17.9534 21.1276 17.9534 19.0728C17.9534 17.0179 16.2876 15.352 14.2327 15.352C12.1778 15.352 10.512 17.0179 10.512 19.0728C10.512 21.1276 12.1778 22.7935 14.2327 22.7935Z" fill="#664E27"/>
<path d="M31.348 22.7935C33.4029 22.7935 35.0687 21.1276 35.0687 19.0728C35.0687 17.0179 33.4029 15.352 31.348 15.352C29.2931 15.352 27.6273 17.0179 27.6273 19.0728C27.6273 21.1276 29.2931 22.7935 31.348 22.7935Z" fill="#664E27"/>
<path d="M27.9249 34.2533H17.6557C16.5395 34.2533 16.5395 31.2767 17.6557 31.2767H27.8505C29.0411 31.2767 29.0411 34.2533 27.9249 34.2533Z" fill="#664E27"/>
</svg>
