<svg width="46" height="45" viewBox="0 0 46 45" fill="none" xmlns="http://www.w3.org/2000/svg">
<path d="M23.0686 44.6713C35.398 44.6713 45.3929 34.6763 45.3929 22.347C45.3929 10.0176 35.398 0.0226593 23.0686 0.0226593C10.7393 0.0226593 0.744339 10.0176 0.744339 22.347C0.744339 34.6763 10.7393 44.6713 23.0686 44.6713Z" fill="#FFDD67"/>
<path d="M14.511 22.0493C16.5659 22.0493 18.2317 20.3835 18.2317 18.3286C18.2317 16.2737 16.5659 14.6079 14.511 14.6079C12.4561 14.6079 10.7903 16.2737 10.7903 18.3286C10.7903 20.3835 12.4561 22.0493 14.511 22.0493Z" fill="#664E27"/>
<path d="M31.6263 22.0493C33.6812 22.0493 35.347 20.3835 35.347 18.3286C35.347 16.2737 33.6812 14.6079 31.6263 14.6079C29.5714 14.6079 27.9056 16.2737 27.9056 18.3286C27.9056 20.3835 29.5714 22.0493 31.6263 22.0493Z" fill="#664E27"/>
<path d="M32.4449 28.5234C26.4173 32.765 19.72 32.6906 13.6924 28.5234C12.9483 28.0025 12.353 28.8954 12.7995 29.714C14.6598 32.6906 18.3061 35.4439 23.0686 35.4439C27.8312 35.4439 31.4775 32.765 33.3378 29.714C33.7843 28.8954 33.189 28.0025 32.4449 28.5234Z" fill="#664E27"/>
</svg>
