<svg width="24" height="23" viewBox="0 0 24 23" fill="none" xmlns="http://www.w3.org/2000/svg">
<path d="M23.225 2.76357C23.2246 2.11816 22.9681 1.49929 22.5117 1.04292C22.0553 0.586546 21.4365 0.32998 20.7911 0.329578L7.80023 0.326134C7.15408 0.326134 6.5344 0.582813 6.07751 1.0397C5.62062 1.4966 5.36394 2.11628 5.36394 2.76242C5.36394 3.40856 5.62062 4.02824 6.07751 4.48513C6.53441 4.94202 7.15408 5.1987 7.80023 5.1987L14.9105 5.19985L1.66704 18.4433C1.21029 18.9 0.953697 19.5195 0.953697 20.1654C0.953697 20.8114 1.21029 21.4308 1.66704 21.8876C2.12378 22.3443 2.74326 22.6009 3.3892 22.6009C4.03514 22.6009 4.65461 22.3443 5.11136 21.8876L18.3548 8.64417L18.3548 15.7532C18.3548 16.0732 18.4178 16.39 18.5402 16.6856C18.6627 16.9812 18.8421 17.2497 19.0683 17.476C19.2946 17.7022 19.5631 17.8816 19.8587 18.0041C20.1543 18.1265 20.4711 18.1895 20.7911 18.1895C21.111 18.1895 21.4278 18.1265 21.7234 18.0041C22.019 17.8816 22.2875 17.7022 22.5138 17.476C22.74 17.2497 22.9195 16.9812 23.0419 16.6856C23.1643 16.39 23.2273 16.0732 23.2273 15.7532L23.225 2.76357Z" fill="#717EF6"/>
</svg>
