<svg width="56" height="56" viewBox="0 0 56 56" fill="none" xmlns="http://www.w3.org/2000/svg">
<path d="M39.225 18.7636C39.2246 18.1182 38.9681 17.4993 38.5117 17.0429C38.0553 16.5865 37.4365 16.33 36.7911 16.3296L23.8002 16.3261C23.1541 16.3261 22.5344 16.5828 22.0775 17.0397C21.6206 17.4966 21.3639 18.1163 21.3639 18.7624C21.3639 19.4086 21.6206 20.0282 22.0775 20.4851C22.5344 20.942 23.1541 21.1987 23.8002 21.1987L30.9105 21.1998L17.667 34.4433C17.2103 34.9 16.9537 35.5195 16.9537 36.1654C16.9537 36.8114 17.2103 37.4308 17.667 37.8876C18.1238 38.3443 18.7433 38.6009 19.3892 38.6009C20.0351 38.6009 20.6546 38.3443 21.1114 37.8876L34.3548 24.6442L34.3548 31.7532C34.3548 32.0732 34.4178 32.39 34.5402 32.6856C34.6627 32.9812 34.8421 33.2497 35.0683 33.476C35.2946 33.7022 35.5631 33.8816 35.8587 34.0041C36.1543 34.1265 36.4711 34.1895 36.7911 34.1895C37.111 34.1895 37.4278 34.1265 37.7234 34.0041C38.019 33.8816 38.2875 33.7022 38.5138 33.476C38.74 33.2497 38.9195 32.9812 39.0419 32.6856C39.1643 32.39 39.2273 32.0732 39.2273 31.7532L39.225 18.7636Z" fill="#717EF6"/>
</svg>
