<svg width="24" height="24" viewBox="0 0 24 24" fill="none" xmlns="http://www.w3.org/2000/svg">
<path d="M15.8977 15.3609C16.4648 15.0563 17.1141 14.8828 17.8055 14.8828H17.8078C17.8781 14.8828 17.9109 14.7984 17.8594 14.7516C17.1403 14.1063 16.319 13.5851 15.4289 13.2094C15.4195 13.2047 15.4102 13.2023 15.4008 13.1977C16.8562 12.1406 17.8031 10.4227 17.8031 8.48438C17.8031 5.27344 15.2062 2.67188 12.0023 2.67188C8.79843 2.67188 6.2039 5.27344 6.2039 8.48438C6.2039 10.4227 7.15078 12.1406 8.60859 13.1977C8.59922 13.2023 8.58984 13.2047 8.58047 13.2094C7.53281 13.6523 6.59297 14.2875 5.78437 15.0984C4.98045 15.9009 4.34042 16.8522 3.9 17.8992C3.46667 18.9245 3.23281 20.023 3.21094 21.1359C3.21031 21.161 3.2147 21.1858 3.22384 21.2091C3.23298 21.2324 3.24669 21.2537 3.26417 21.2716C3.28164 21.2895 3.30252 21.3037 3.32558 21.3134C3.34864 21.3231 3.37341 21.3281 3.39844 21.3281H4.80234C4.90312 21.3281 4.9875 21.2461 4.98984 21.1453C5.03672 19.3359 5.76094 17.6414 7.04297 16.357C8.36719 15.0281 10.1297 14.2969 12.0047 14.2969C13.3336 14.2969 14.6086 14.6648 15.7078 15.3539C15.736 15.3716 15.7685 15.3816 15.8018 15.3829C15.8351 15.3841 15.8682 15.3765 15.8977 15.3609ZM12.0047 12.5156C10.9312 12.5156 9.92109 12.0961 9.15937 11.3344C8.7846 10.9606 8.48748 10.5163 8.28515 10.0272C8.08282 9.53804 7.97927 9.0137 7.98047 8.48438C7.98047 7.40859 8.4 6.39609 9.15937 5.63437C9.91875 4.87266 10.9289 4.45312 12.0047 4.45312C13.0805 4.45312 14.0883 4.87266 14.85 5.63437C15.2248 6.00818 15.5219 6.45245 15.7242 6.94158C15.9265 7.43071 16.0301 7.95505 16.0289 8.48438C16.0289 9.56016 15.6094 10.5727 14.85 11.3344C14.0883 12.0961 13.0781 12.5156 12.0047 12.5156ZM20.625 18.0938H15C14.8969 18.0938 14.8125 18.1781 14.8125 18.2812V19.5938C14.8125 19.6969 14.8969 19.7812 15 19.7812H20.625C20.7281 19.7812 20.8125 19.6969 20.8125 19.5938V18.2812C20.8125 18.1781 20.7281 18.0938 20.625 18.0938Z" fill="#FF0000"/>
</svg>
